<?xml version="1.0" encoding="UTF-8" standalone="no"?>
<!-- Generator: Adobe Illustrator 16.0.0, SVG Export Plug-In . SVG Version: 6.00 Build 0)  -->

<svg
   version="1.1"
   id="Ebene_1"
   x="0px"
   y="0px"
   width="215"
   height="31"
   viewBox="0 0 214.99999 31"
   enable-background="new 0 0 240.945 72"
   xml:space="preserve"
   xmlns="http://www.w3.org/2000/svg"
   xmlns:svg="http://www.w3.org/2000/svg"><defs
   id="defs20" />
<g
   id="g20"
   transform="translate(-12.333,-10.921)">
	<path
   fill="#505055"
   d="m 210.333,10.921 h -4 l -17,17.057 v 13.943 h 3 v -8 h 32 v 8 h 3 V 27.978 Z m -18,20 v -2.004 l 15,-14.996 h 2 l 15,14.996 v 2.004 z"
   id="path1" />
	<polygon
   fill="#0096b4"
   points="12.333,27.921 12.333,38.719 15.843,41.921 33.333,41.921 33.333,31.583 29.72,27.921 "
   id="polygon1" />
	<polygon
   fill="#82c812"
   points="36.333,41.921 54.005,41.921 57.333,38.719 57.333,27.921 40.086,27.921 36.333,31.54 "
   id="polygon2" />
	<polygon
   fill="#f02850"
   points="33.333,10.921 15.843,10.921 12.333,14.008 12.333,24.921 29.763,24.921 33.333,21.189 "
   id="polygon3" />
	<polygon
   fill="#7850a0"
   points="57.333,14.008 54.005,10.921 36.333,10.921 36.333,21.186 40.088,24.921 57.333,24.921 "
   id="polygon4" />
	<polygon
   fill="#505055"
   points="148.333,24.921 165.333,41.921 169.287,41.921 186.333,24.921 186.333,10.921 183.333,10.921 183.333,23.921 168.347,38.921 166.333,38.921 151.333,23.921 151.333,10.921 148.333,10.921 "
   id="polygon5" />
	<polygon
   fill="#505055"
   points="108.333,34.782 115.333,41.921 134.271,41.921 141.333,34.782 141.333,10.921 138.333,10.921 138.333,33.842 133.332,38.921 116.333,38.921 111.333,33.842 111.333,10.921 108.333,10.921 "
   id="polygon6" />
	
	
	
	
	
	
	
	
	
	
	
	
	
	
	
	
	
	
	
	
	
	
	<polygon
   fill="#505055"
   points="38.239,26.363 34.926,23.04 31.59,26.385 34.903,29.708 "
   id="polygon20" />
	<path
   fill="#505055"
   d="M 101.333,17.774 94.451,10.921 H 67.333 v 31 h 27.118 l 6.882,-7.14 z m -3,16.068 -4.821,5.079 H 70.333 v -25 h 23.179 l 4.821,4.792 z"
   id="path20" />
</g>
</svg>
