<?xml version="1.0" encoding="UTF-8"?>
<svg xmlns="http://www.w3.org/2000/svg" version="1.1" xmlns:svgjs="http://svgjs.dev/svgjs" viewBox="0 0 512 512">
  <defs>
    <style>
      .cls-1 {
        fill: #fff;
      }

      .cls-2 {
        fill: #e0202c;
      }
    </style>
  </defs>
  <!-- Generator: Adobe Illustrator 28.7.4, SVG Export Plug-In . SVG Version: 1.2.0 Build 166)  -->
  <g>
    <g id="Ebene_1">
      <g id="SvgjsSvg1015">
        <path class="cls-2" d="M302.7,51.7c45.2,1.9,80.2,4.4,115.5,8.1,22.5,2.4,49.3,5.8,54.9,7.1l2.4.5-.7,15.9c-1.7,38.3-7.6,78.7-17.5,117.2-26.8,105.7-78.4,186.2-151.5,235.9-12.7,8.7-32.6,20.1-43.8,25l-8.3,3.8-12.6-6.3c-77.6-38.9-134.8-106.6-170.1-201.4-18.6-49.6-30.6-106.3-34.4-161.7-.6-9.3-1.1-19.5-.8-22.9l.3-6.1,21.4-2.6c36.9-4.6,78.6-8.5,122.5-11.1,17.4-1.1,106.4-2.1,122.6-1.4"/>
        <path class="cls-1" d="M94.7,261.2c0,1.1,10.8,25.1,15.4,34.2,19.2,38.2,45.9,74.6,73.2,99.3,9.5,8.6,23.2,19.6,28.6,23.2l2.8,1.8v-158.9h-60c-33.1,0-60,.2-60,.5"/>
        <path class="cls-1" d="M296.1,339.6v78.9l3.8-2.9c33.8-25,57.5-50.3,80-85,12.5-19.3,25.7-44.4,33.6-63.8l2.6-6.3h-120v78.9h0Z"/>
        <path class="cls-1" d="M159.8,75.1c-27.3,1.8-60.1,4.8-83.7,7.5-9.4,1.1-17.6,2-18.1,2-3.2,0,4.6,64.9,11,91.3l.5,2.4h145.2v-106.1l-16.1.7c-8.8.4-26.2,1.3-38.9,2.3"/>
        <path class="cls-1" d="M296.1,125.3v52.9h145.2l1.8-8c4.5-21.2,9.1-53.8,10.4-75.1l.7-10.2-3.5-.6c-13.3-2.4-73.4-8.1-104.2-9.9-10.7-.6-21.3-1.2-23.9-1.3-2.5-.2-9.4-.4-15.6-.5l-10.8-.2v52.9h0Z"/>
      </g>
    </g>
  </g>
</svg>