<svg id="ba5d418f-7617-4ced-8802-1e902963db37" data-name="Ebene 1" xmlns="http://www.w3.org/2000/svg" viewBox="0 0 180.264 180.264">
  <defs>
    <style>
      .be21b70e-f0c9-43ec-b7a4-be43c532c6d4 {
        fill: #e0202c;
      }
    </style>
  </defs>
  <path class="be21b70e-f0c9-43ec-b7a4-be43c532c6d4" d="M114.416,99.646c0,1.7-1.237,2.846-3.393,2.846h-4.485V96.713h4.4c2.157,0,3.479.977,3.479,2.875Zm5.09,13.195-4.917-7.186a6.252,6.252,0,0,0,4.312-6.24v-.059a6.319,6.319,0,0,0-1.725-4.6,8.017,8.017,0,0,0-5.866-2.04h-9.2v20.124h4.427V106.4h3.479l4.312,6.44Zm15.825,16.046a59.25,59.25,0,0,1-43.14,18.4,60.006,60.006,0,0,1-40.4-15.767l-3.1,3.368a64.615,64.615,0,0,0,43.508,16.98,63.785,63.785,0,0,0,46.446-19.812Zm-39.815-57.6c0,1.694-1.236,2.846-3.392,2.846H87.638V68.356h4.4c2.156,0,3.478.977,3.478,2.875Zm5.09,13.2L95.69,77.3A6.249,6.249,0,0,0,100,71.058V71a6.317,6.317,0,0,0-1.726-4.6,8.019,8.019,0,0,0-5.865-2.04h-9.2V84.485h4.427V78.044h3.48l4.311,6.441Zm-9.593,8.232v11.528c0,3.192-1.639,4.83-4.342,4.83s-4.34-1.7-4.34-4.973V92.717H77.9v11.5c0,5.922,3.306,8.941,8.711,8.941s8.827-2.991,8.827-9.085V92.717Zm-23,14.059c0,1.494-1.179,2.184-3.134,2.184H59.617v-4.427h5.119c2.27,0,3.277.832,3.277,2.185Zm-1.121-8.05c0,1.494-1.237,2.127-3.191,2.127H59.617V96.6h4.371c1.869,0,2.9.746,2.9,2.069Zm1.754,3.592a4.679,4.679,0,0,0,2.644-4.341v-.056A4.618,4.618,0,0,0,69.91,94.5a7.264,7.264,0,0,0-5.262-1.781H55.305v20.124h9.574c4.542,0,7.532-1.84,7.532-5.52v-.057c0-2.7-1.437-4.054-3.765-4.946M74.337,64.36H56.6V84.485h4.426V76.694h9.6V72.668h-9.6V68.384H74.337ZM44.65,44.174a64.459,64.459,0,0,0-13.838,62.707l4.37-1.376A59.782,59.782,0,0,1,86.321,28.056l-.445-4.56A64.148,64.148,0,0,0,44.65,44.174M45.6,25.03,42.63,21A84.021,84.021,0,0,0,11.271,67.039l4.842,1.278A79,79,0,0,1,45.6,25.03m58.318-6.2.515-3.072A72.729,72.729,0,0,0,31.054,48.5l2.635,1.672a69.489,69.489,0,0,1,70.229-31.337m6.132,65.652h15.324V80.546H114.448V76.32h9.488V72.381h-9.488V68.3H125.23V64.36H110.05Zm26.792,0h4.427V64.359h-4.427Zm-2.1,28.7a13.066,13.066,0,0,0,8.6-3.191v-8.741H134.6v3.823h4.456v2.876a7.067,7.067,0,0,1-4.169,1.207,6.028,6.028,0,0,1-6.095-6.382v-.057a6.045,6.045,0,0,1,5.779-6.269,7.412,7.412,0,0,1,5.261,2.042l2.789-3.364a11.05,11.05,0,0,0-7.906-2.76,10.331,10.331,0,0,0-10.553,10.408v.058c0,5.951,4.312,10.35,10.581,10.35m34.417-11.006-7.124-1.369A70.9,70.9,0,0,1,81.985,157.56l-1.066,7.169a78.2,78.2,0,0,0,88.241-62.548"/>
</svg>